<svg width="142" height="24" viewBox="0 0 142 24" fill="none" xmlns="http://www.w3.org/2000/svg">
<path d="M11.0225 17.4812H4.85074L0 3.20573H6.65469L8.43022 10.576H8.54386L10.3762 3.19141H16.3562L18.3235 10.576H18.4016L20.1487 3.20573H26.5051L21.5692 17.4812H15.369L13.1887 10.1538H13.1318L11.0225 17.4812Z" fill="#202020"/>
<path d="M27.7764 3.20575H33.7635V4.85154H33.8132C34.1328 4.26042 34.6036 3.76628 35.1768 3.42041C35.8185 3.02989 36.5581 2.83365 37.3074 2.85511C37.7072 2.84413 38.1064 2.8899 38.4935 2.99107L38.0035 8.3077C37.7864 8.25169 37.5656 8.21105 37.3429 8.18606C37.1238 8.15883 36.9032 8.1445 36.6824 8.14313C36.3284 8.12756 35.9748 8.18276 35.642 8.30558C35.3092 8.42839 35.0039 8.61638 34.7436 8.85869C34.5116 9.08274 34.3286 9.35314 34.2063 9.65257C34.084 9.95199 34.0251 10.2738 34.0333 10.5975V17.517H27.8048L27.7764 3.20575Z" fill="#202020"/>
<path d="M46.803 8.42934C46.8156 8.24334 46.7811 8.05714 46.7029 7.88819C46.6246 7.71924 46.5051 7.57306 46.3555 7.46333C46.006 7.24095 45.5965 7.13344 45.1837 7.15564C44.6213 7.1531 44.0655 7.27782 43.5573 7.52058C43.0694 7.74909 42.6114 8.03749 42.1937 8.37925L39.0972 5.28087C39.979 4.43535 41.0231 3.78033 42.1653 3.356C43.3347 2.90347 44.5772 2.67298 45.83 2.67621C46.972 2.63644 48.1101 2.83122 49.1751 3.24867C49.9954 3.58104 50.7152 4.12372 51.2631 4.8229C51.7863 5.51258 52.1546 6.3085 52.3426 7.15564C52.5517 8.08046 52.6541 9.02648 52.648 9.97496V17.4955H47.016V16.3578H46.9663C46.5967 16.9064 46.0573 17.3165 45.4323 17.5241C44.8081 17.7516 44.15 17.8702 43.4863 17.8748C42.9074 17.8721 42.3316 17.7903 41.7747 17.6315C41.2017 17.4734 40.6641 17.2062 40.1909 16.8444C39.6983 16.4624 39.2977 15.9731 39.019 15.4132C38.693 14.7466 38.5344 14.0094 38.5574 13.2666C38.5183 12.3918 38.7903 11.5316 39.3244 10.8408C39.8504 10.2023 40.52 9.69939 41.2775 9.37389C42.1248 9.00971 43.0191 8.76878 43.9337 8.65833C44.876 8.53837 45.8247 8.47623 46.7746 8.47227L46.803 8.42934ZM46.8598 11.5778C46.1097 11.5538 45.3609 11.6554 44.6439 11.8784C44.4001 11.9416 44.185 12.0867 44.034 12.2896C43.883 12.4925 43.805 12.7411 43.813 12.9946C43.8065 13.1715 43.8536 13.3462 43.9479 13.4955C44.0363 13.6335 44.1555 13.7486 44.2959 13.8318C44.443 13.9253 44.6035 13.9953 44.7718 14.0394C44.9248 14.0799 45.0822 14.1016 45.2405 14.1038C45.5039 14.1148 45.7667 14.0694 46.0115 13.9708C46.2564 13.8721 46.4777 13.7223 46.6609 13.5313C47.0205 13.1442 47.2144 12.6301 47.2007 12.1002V11.6064L46.8598 11.5778Z" fill="#202020"/>
<path d="M65.1762 17.8604C64.4667 17.8595 63.7636 17.7261 63.1024 17.4669C62.468 17.2399 61.8961 16.8647 61.4334 16.372H61.3766V23.9999H55.2119V3.20568H61.057V4.63681H61.1067C61.623 4.04194 62.2699 3.57643 62.9959 3.27722C63.6696 2.98595 64.3934 2.83039 65.1265 2.81927C66.0985 2.79788 67.0605 3.02172 67.9247 3.47044C68.7153 3.88472 69.4062 4.46846 69.9488 5.18062C70.4943 5.89748 70.908 6.7069 71.1704 7.5706C71.4477 8.44749 71.5891 9.36226 71.5894 10.2826C71.588 11.2216 71.4468 12.155 71.1704 13.0518C70.9096 13.9272 70.4959 14.7486 69.9488 15.4776C69.4123 16.1938 68.7262 16.7825 67.9389 17.2021C67.0868 17.6501 66.1372 17.8763 65.1762 17.8604ZM65.8864 10.2898C65.8955 9.6828 65.6861 9.09306 65.2969 8.62964C65.082 8.38625 64.815 8.19533 64.5159 8.07135C64.2169 7.94737 63.8938 7.8936 63.5711 7.91408C63.2555 7.89946 62.9402 7.94988 62.6446 8.06227C62.349 8.17465 62.0792 8.34662 61.8519 8.56767C61.6245 8.78872 61.4443 9.05418 61.3222 9.34783C61.2002 9.64147 61.1389 9.9571 61.1422 10.2754C61.1354 10.5902 61.1903 10.9033 61.3036 11.1967C61.4169 11.4902 61.5865 11.7582 61.8027 11.9856C62.0299 12.2249 62.3052 12.4125 62.6102 12.5359C62.9152 12.6593 63.2428 12.7156 63.5711 12.7012C63.8935 12.7186 64.2156 12.6633 64.5142 12.5396C64.8127 12.4158 65.0801 12.2266 65.2969 11.9856C65.6763 11.5049 65.8728 10.9035 65.8509 10.2898H65.8864Z" fill="#202020"/>
<path d="M82.5838 17.4813V9.9893C82.6209 9.45032 82.5284 8.91029 82.3139 8.41508C82.2276 8.257 82.098 8.12717 81.9407 8.04094C81.7833 7.95471 81.6048 7.91567 81.4262 7.92848C81.2584 7.9356 81.0939 7.97813 80.9434 8.05332C80.7929 8.12851 80.6598 8.23469 80.5526 8.36498C80.2254 8.80898 80.0759 9.36068 80.1336 9.9106V17.4813H73.9121V3.20578H79.9702V4.78001H80.027C80.2214 4.51857 80.4428 4.2787 80.6875 4.06444C80.9598 3.82461 81.2575 3.61583 81.5753 3.44191C82.3254 3.01118 83.1765 2.79125 84.0397 2.80507C84.8767 2.78324 85.7075 2.95456 86.4687 3.30595C87.1536 3.64487 87.717 4.19001 88.0809 4.86587C88.5633 4.27573 89.1481 3.77871 89.8067 3.39897C90.6007 2.97317 91.493 2.76818 92.3918 2.80507C93.1908 2.7609 93.9871 2.931 94.6995 3.29806C95.4119 3.66513 96.015 4.216 96.4471 4.8945C96.8322 5.48572 97.1066 6.14293 97.2568 6.83367C97.4002 7.47017 97.4764 8.1202 97.4841 8.77286V17.4598H91.2626V9.86051C91.3156 9.32395 91.2171 8.78322 90.9785 8.30059C90.8766 8.16723 90.7435 8.06146 90.591 7.99277C90.4385 7.92407 90.2715 7.8946 90.1049 7.90701C89.9232 7.90837 89.7445 7.95479 89.5847 8.04214C89.425 8.12949 89.289 8.25511 89.1888 8.40792C88.9072 8.84744 88.775 9.36733 88.8124 9.88914V17.4598L82.5838 17.4813Z" fill="#202020"/>
<path d="M107.725 8.42934C107.737 8.24334 107.703 8.05714 107.625 7.88819C107.547 7.71924 107.427 7.57306 107.277 7.46333C106.928 7.24095 106.518 7.13344 106.106 7.15564C105.543 7.1531 104.987 7.27782 104.479 7.52058C103.991 7.74909 103.533 8.03749 103.116 8.37925L100.019 5.28087C100.902 4.43694 101.946 3.78213 103.087 3.356C104.257 2.90347 105.499 2.67298 106.752 2.67621C107.894 2.63644 109.032 2.83122 110.097 3.24867C110.917 3.58104 111.637 4.12372 112.185 4.8229C112.708 5.51258 113.076 6.3085 113.264 7.15564C113.474 8.08046 113.576 9.02648 113.57 9.97496V17.4955H107.938V16.3578H107.888C107.517 16.9081 106.975 17.3184 106.347 17.5241C105.725 17.7522 105.07 17.8708 104.408 17.8748C103.829 17.8721 103.253 17.7903 102.697 17.6315C102.124 17.4734 101.586 17.2062 101.113 16.8444C100.62 16.4624 100.22 15.9731 99.9409 15.4132C99.6148 14.7466 99.4563 14.0094 99.4793 13.2666C99.4402 12.3918 99.7122 11.5316 100.246 10.8408C100.772 10.2023 101.442 9.69939 102.199 9.37389C103.046 9.00888 103.941 8.76791 104.856 8.65833C105.798 8.53837 106.747 8.47623 107.696 8.47227L107.725 8.42934ZM107.782 11.5778C107.032 11.5538 106.283 11.6554 105.566 11.8784C105.322 11.9416 105.107 12.0867 104.956 12.2896C104.805 12.4925 104.727 12.7411 104.735 12.9946C104.728 13.1715 104.775 13.3462 104.87 13.4955C104.958 13.6335 105.077 13.7486 105.218 13.8318C105.366 13.9239 105.526 13.9938 105.694 14.0394C105.847 14.0799 106.004 14.1016 106.162 14.1038C106.426 14.1148 106.689 14.0694 106.933 13.9708C107.178 13.8721 107.4 13.7223 107.583 13.5313C107.942 13.1442 108.136 12.6301 108.123 12.1002V11.6064L107.782 11.5778Z" fill="#202020"/>
<path d="M122.036 17.8605C120.125 17.8605 118.719 17.4526 117.775 16.6297C116.83 15.8068 116.397 14.5259 116.397 12.7871V7.71377H114.408V3.20573H116.376V0H122.419V3.20573H125.495V7.71377H122.419V11.5134C122.383 11.7705 122.404 12.0326 122.481 12.2803C122.559 12.5281 122.691 12.7551 122.867 12.9445C123.222 13.2066 123.656 13.3357 124.096 13.3095C124.302 13.3097 124.509 13.293 124.713 13.2594C124.886 13.2323 125.056 13.1965 125.225 13.1521V17.4454C124.787 17.6205 124.329 17.7383 123.861 17.7961C123.255 17.8653 122.645 17.8868 122.036 17.8605Z" fill="#202020"/>
<path d="M142 10.4758C142 10.7119 142 10.9552 142 11.1914C141.996 11.3947 141.982 11.5977 141.957 11.7996H132.405C132.423 12.0463 132.512 12.2824 132.66 12.4794C132.818 12.6834 133.011 12.8578 133.229 12.9946C133.459 13.147 133.714 13.2584 133.981 13.3238C134.26 13.3955 134.546 13.4316 134.834 13.4311C135.326 13.4444 135.813 13.3363 136.254 13.1162C136.594 12.9418 136.894 12.6981 137.135 12.4007L141.552 14.6547C140.891 15.7142 139.942 16.5609 138.818 17.0948C137.518 17.7131 136.093 18.0193 134.656 17.9892C133.64 17.9895 132.631 17.8252 131.666 17.5026C130.723 17.1983 129.847 16.7122 129.088 16.0715C128.328 15.4081 127.718 14.5883 127.298 13.6672C126.831 12.6198 126.601 11.4809 126.624 10.3327C126.607 9.23717 126.817 8.15018 127.242 7.1413C127.633 6.226 128.208 5.40245 128.932 4.72269C129.656 4.05034 130.506 3.5298 131.432 3.19138C132.42 2.82289 133.467 2.63863 134.521 2.64757C135.563 2.63468 136.596 2.83175 137.561 3.22717C138.451 3.60341 139.256 4.15854 139.926 4.85865C140.592 5.57603 141.108 6.42023 141.446 7.34166C141.816 8.34419 142.004 9.40598 142 10.4758ZM136.623 8.42931C136.629 8.19222 136.583 7.9568 136.487 7.74019C136.391 7.52357 136.248 7.3312 136.069 7.17707C135.646 6.83492 135.113 6.66172 134.571 6.69049C134.282 6.67259 133.993 6.7141 133.721 6.81252C133.448 6.91094 133.199 7.06419 132.987 7.26294C132.657 7.57144 132.437 7.98161 132.362 8.42931H136.623Z" fill="#202020"/>
</svg>
